<svg width="24" height="25" viewBox="0 0 24 25" fill="none" xmlns="http://www.w3.org/2000/svg">
<path d="M11.9999 8.49963C13.0999 8.49963 13.9999 7.59963 13.9999 6.49963C13.9999 5.39963 13.0999 4.49963 11.9999 4.49963C10.8999 4.49963 9.99988 5.39963 9.99988 6.49963C9.99988 7.59963 10.8999 8.49963 11.9999 8.49963ZM11.9999 10.4996C10.8999 10.4996 9.99988 11.3996 9.99988 12.4996C9.99988 13.5996 10.8999 14.4996 11.9999 14.4996C13.0999 14.4996 13.9999 13.5996 13.9999 12.4996C13.9999 11.3996 13.0999 10.4996 11.9999 10.4996ZM11.9999 16.4996C10.8999 16.4996 9.99988 17.3996 9.99988 18.4996C9.99988 19.5996 10.8999 20.4996 11.9999 20.4996C13.0999 20.4996 13.9999 19.5996 13.9999 18.4996C13.9999 17.3996 13.0999 16.4996 11.9999 16.4996Z" fill="#79747E"/>
</svg>
