<svg width="16" height="17" viewBox="0 0 16 17" fill="none" xmlns="http://www.w3.org/2000/svg">
<path opacity="0.65" d="M11.5201 5.94063H10.8801V4.66063C10.8801 2.89423 9.44646 1.46063 7.68006 1.46063C5.91366 1.46063 4.48006 2.89423 4.48006 4.66063V5.94063H3.84006C3.13606 5.94063 2.56006 6.51663 2.56006 7.22063V13.6206C2.56006 14.3246 3.13606 14.9006 3.84006 14.9006H11.5201C12.2241 14.9006 12.8001 14.3246 12.8001 13.6206V7.22063C12.8001 6.51663 12.2241 5.94063 11.5201 5.94063ZM7.68006 11.7006C6.97606 11.7006 6.40006 11.1246 6.40006 10.4206C6.40006 9.71663 6.97606 9.14063 7.68006 9.14063C8.38406 9.14063 8.96006 9.71663 8.96006 10.4206C8.96006 11.1246 8.38406 11.7006 7.68006 11.7006ZM9.66406 5.94063H5.69606V4.66063C5.69606 3.56623 6.58566 2.67663 7.68006 2.67663C8.77446 2.67663 9.66406 3.56623 9.66406 4.66063V5.94063Z" fill="#49454F"/>
</svg>
